<svg xmlns="http://www.w3.org/2000/svg" xmlns:xlink="http://www.w3.org/1999/xlink" viewBox="0 0 25 16"><defs><style>.cls-1{fill:#fff;}.cls-2{mask:url(#mask);}.cls-3{mask:url(#mask-2-2);}</style><mask id="mask" x="25.28" y="3.78" width="0.22" height="0.59" maskUnits="userSpaceOnUse"><g transform="translate(0 -0.59)"><g id="mask-2"><polygon id="path-1" class="cls-1" points="25.29 4.36 25.51 4.36 25.51 4.95 25.29 4.95 25.29 4.36"/></g></g></mask><mask id="mask-2-2" x="0" y="0" width="25.51" height="16.15" maskUnits="userSpaceOnUse"><g transform="translate(0 -0.59)"><g id="mask-4"><polygon id="path-3" class="cls-1" points="0 0.59 25.51 0.59 25.51 16.73 0 16.73 0 0.59"/></g></g></mask></defs><title>icon-chevron</title><g id="Error-page"><g id="Error-HD-C2-color"><g id="Group-6"><g id="Page-1"><path id="Fill-1" class="cls-1" d="M5.85,10.07a.37.37,0,0,0,0-.19H5.77Z" transform="translate(0 -0.59)"/><path id="Fill-3" class="cls-1" d="M11.18,7.7l-.06,0,.08.3h0c0-.12-.06-.24,0-.27" transform="translate(0 -0.59)"/><path id="Fill-5" class="cls-1" d="M14.14,15.21a.77.77,0,0,1,0,.15c.07,0,.11-.09,0-.15" transform="translate(0 -0.59)"/><path id="Fill-7" class="cls-1" d="M21,8.68l.17-.08L21,8.68" transform="translate(0 -0.59)"/><path id="Fill-9" class="cls-1" d="M13.93,15.52a.31.31,0,0,0,.17-.16.47.47,0,0,0-.17.16" transform="translate(0 -0.59)"/><path id="Fill-11" class="cls-1" d="M10.33,14.13l0,0c-.08,0,0,0,0,0" transform="translate(0 -0.59)"/><polygon id="Fill-13" class="cls-1" points="6.65 10.26 6.65 10.26 6.63 10.24 6.65 10.26"/><path id="Fill-15" class="cls-1" d="M21.76,8.09l0-.06h0Z" transform="translate(0 -0.59)"/><polygon id="Fill-17" class="cls-1" points="11.87 7.81 11.84 7.84 11.9 7.85 11.87 7.81"/><g id="Group-21"><g class="cls-2"><path id="Fill-19" class="cls-1" d="M25.28,4.4l.09.19.07-.14c0-.06-.11-.13-.16,0" transform="translate(0 -0.59)"/></g></g><path id="Fill-22" class="cls-1" d="M23.52,6.41c.07-.05.25-.07.32-.18l0,0c0,.1-.3.09-.29.22" transform="translate(0 -0.59)"/><polygon id="Fill-24" class="cls-1" points="15.63 13.39 15.79 13.37 15.73 13.23 15.63 13.39"/><path id="Fill-26" class="cls-1" d="M8.73,12.59c-.12-.1-.23-.21-.33-.09l.16.09a.13.13,0,0,1,.17,0" transform="translate(0 -0.59)"/><path id="Fill-28" class="cls-1" d="M24.72,5.33l0,0,0,0Z" transform="translate(0 -0.59)"/><path id="Fill-30" class="cls-1" d="M24.06,5.92l0,0s0,0,0,0,0,.06,0,.09" transform="translate(0 -0.59)"/><path id="Fill-32" class="cls-1" d="M24.11,5.9a.2.2,0,0,0,0-.1l0,.07Z" transform="translate(0 -0.59)"/><path id="Fill-34" class="cls-1" d="M9.28,7.54l.34.22,0-.06,0-.18,0-.05v0l-.27.06v0h0" transform="translate(0 -0.59)"/><path id="Fill-36" class="cls-1" d="M24.8,4.75c-.06,0-.07-.07-.09-.1a.39.39,0,0,0,.19.43c-.05-.21,0-.18-.05-.42a.13.13,0,0,1,.21,0c0-.06.14-.08.09-.2a.3.3,0,0,0-.35.3" transform="translate(0 -0.59)"/><path id="Fill-38" class="cls-1" d="M24.81,5.13l0,.1s.06-.05,0-.1" transform="translate(0 -0.59)"/><path id="Fill-40" class="cls-1" d="M19.41,3.71c-.1-.06,0-.27-.16,0a.51.51,0,0,1,.16,0" transform="translate(0 -0.59)"/><g id="Group-44"><g class="cls-3"><path id="Fill-42" class="cls-1" d="M24.26,4.61s-.08,0-.11-.08a.14.14,0,0,1,.07-.23.24.24,0,0,1,.26,0C24.58,4.43,24.42,4.62,24.26,4.61Zm-.53,1.17a.2.2,0,0,1-.15-.08l.17-.17Zm-1,.92-.15,0,.15-.14A.3.3,0,0,1,22.76,6.7ZM21.91,6a.49.49,0,0,1-.05.13s-.06.07-.09.06a.24.24,0,0,1-.12-.07A.53.53,0,0,1,21.58,6a.32.32,0,0,1,0-.26c.06-.09.13-.09.22,0A.27.27,0,0,1,21.91,6Zm-.09,1.76a.18.18,0,0,1-.24-.08s0-.09.06-.12a.13.13,0,0,1,.23.06S21.84,7.7,21.82,7.74ZM19.46,5.85a10.72,10.72,0,0,0-.56,1,.21.21,0,0,1-.27.06.4.4,0,0,1-.21-.59,1.27,1.27,0,0,1,.92-.65s.09,0,.14.05S19.48,5.82,19.46,5.85Zm-.1,1.82L19.07,8a.28.28,0,0,1-.4,0,1,1,0,0,1-.2-.22c0-.06.11-.28.23-.34L19,7.33l.15,0a.3.3,0,0,1,.25.11A.18.18,0,0,1,19.36,7.67Zm-.28,2.6a.58.58,0,0,1-.11-.09l.12-.12A.19.19,0,0,1,19.08,10.27ZM16.42,6.75h0l.08-.09Zm-.16.32s-.12,0-.21,0L16.22,7C16.28,7,16.3,7,16.27,7.08Zm-.7,3.12.08,0v.08Zm-.1-.71c-.08,0-.14,0-.15-.12s.06-.06.1-.06.06,0,.09.07S15.48,9.47,15.46,9.48ZM14.07,14.1a.22.22,0,0,1-.15,0,.79.79,0,0,1-.25-.15c-.17-.18-.31-.37-.47-.56a1.6,1.6,0,0,1-.31-.65c-.06-.24-.11-.47-.15-.67s-.09-.62-.13-.91c0,0,0-.11,0-.13a.15.15,0,0,1,.24.05c.09.17.19.34.29.51a.78.78,0,0,1,.11.56.65.65,0,0,0,.23.65l.34.29a.64.64,0,0,1,.22.37c0,.19.07.38.09.57A.13.13,0,0,1,14.07,14.1Zm-1.91.26a.54.54,0,0,1-.49-.1h0l0,0h0s0,0,.05,0h-.05l0,0h0a2.16,2.16,0,0,1,.28-.07l.44,0a.34.34,0,0,1,.13,0C12.47,14.39,12.29,14.31,12.16,14.35Zm-.4-4.85s.1,0,.12.06a.2.2,0,0,1,0,.26.39.39,0,0,1-.12-.07A.15.15,0,0,1,11.76,9.51Zm-.91,2.73c-.07,0-.16,0-.19-.13s-.07-.27-.11-.46,0-.22-.06-.35.06-.07.09-.06a.16.16,0,0,1,.12.07c.08.23.14.46.22.68S11,12.18,10.85,12.24Zm-2.67-6c-.1,0-.16-.08-.16-.16s0-.2.11-.21.15.08.16.17A.17.17,0,0,1,8.19,6.26ZM7.58,9a.13.13,0,0,1-.11,0,.17.17,0,0,1,.05-.22.16.16,0,0,1,.14.18A.13.13,0,0,1,7.58,9ZM6.19,3.65a.18.18,0,0,1-.25.1.17.17,0,0,1-.12-.24l0-.14a.17.17,0,0,1,.24-.11s.07.07.1.1A.32.32,0,0,1,6.19,3.65ZM5.56,9,5.41,9a.21.21,0,0,1-.24-.12.2.2,0,0,1,0-.14.26.26,0,0,1,.36-.18c.11,0,.19.09.19.19S5.66,8.92,5.56,9ZM5,7.67a.79.79,0,0,1-.21-.19c0-.07,0-.14.15-.17a.18.18,0,0,1,.23.11.24.24,0,0,1,0,.27S5.05,7.68,5,7.67ZM5.29,6.3c0-.11.11-.16.18-.11a1.28,1.28,0,0,1,.18.19c0,.12-.05.36-.12.33a.41.41,0,0,1-.2-.16A.39.39,0,0,1,5.29,6.3Zm.17-1.17a.15.15,0,0,1,.13.06.15.15,0,0,1-.09.23s-.08,0-.12-.07S5.33,5.16,5.46,5.13Zm-1.59-1a.56.56,0,0,1-.1.07c-.1,0-.16,0-.16-.1A.13.13,0,0,1,3.66,4,.18.18,0,0,1,3.9,4S3.88,4.1,3.86,4.13ZM3,6.49l0-.11L3,6.48ZM2.82,3.42a.31.31,0,0,1-.11,0s0-.07,0-.08a.14.14,0,0,1,.09-.06s.07,0,.11,0S2.85,3.41,2.82,3.42ZM2.11,5.19a.94.94,0,0,1-.46.36.58.58,0,0,1-.15,0,.32.32,0,0,1-.24-.14.21.21,0,0,1,0-.27,1.76,1.76,0,0,1,.42-.41c.13-.08.34-.07.4,0A.36.36,0,0,1,2.11,5.19Zm23-1.78,0-.16.17.16c0-.18-.14-.16-.27-.17a.22.22,0,0,0,0-.18h-.39c.05-.1.24-.07.15-.23-.13,0-.12.14-.19.18a.18.18,0,0,1,0,.12,4.1,4.1,0,0,0-.28.66c0,.07-.14.11-.22.17s-.18,0-.25-.09a.65.65,0,0,1,0-.68.6.6,0,0,1,.44-.34.36.36,0,0,1,.26,0c0-.08,0-.11-.1-.14a.12.12,0,0,1,.16-.05c-.16,0-.29-.23-.45-.18,0-.2-.36-.3-.17-.47a.75.75,0,0,1-.42-.11c.19,0,.12-.11,0-.22s-.37-.38-.24-.5c-.28,0-.61-.34-.94-.62a2.65,2.65,0,0,0-.29.38s0-.14.08-.16a.76.76,0,0,1-.3.16.32.32,0,0,1,.07.26,1,1,0,0,1-.26.49.21.21,0,0,1-.2,0,.79.79,0,0,0-.05.15c-.17,0-.19-.07-.2-.15a1.06,1.06,0,0,0,0-.18l-.06-.1h0c.07.06,0,.24-.05.31s-.06.17,0,.2c-.21,0-.15,0-.35,0,.19.22-.07.14,0,.36-.27.06-.24-.15-.36.09a.06.06,0,0,1-.08,0l0,0c0,.06.13.1.16.17-.18.26-.22,0-.38,0-.1.18-.06.42-.17.51s-.06,0-.07-.06c0,.26-.43.43-.44.75l-.06,0a.74.74,0,0,1,.24.18c-.08.08-.06.25-.19.18.05,0,0-.09,0-.15l0,.13c-.23-.07.07-.17,0-.27-.12.21-.2.52-.37.61-.17-.11.26-.34,0-.3l.26-.14c-.38-.07.14-.1-.25-.2-.31.22-.22.36-.53.58,0,.14.14.1.16.23-.23.51-.66-.07-.75.39,0,.16.18.37-.11.47l-.1-.22c-.27.23.09.37-.29.53,0-.11.15-.25.09-.23-.3,0,0,.21-.17.34l-.17-.11c-.25.29-.45.68-.73,1,0-.06,0-.15-.14-.13A4,4,0,0,1,15,7.6l.07,0-.08,0V7.61l-.05,0,0,.26s-.12,0-.11-.05c-.19.09.07.08.05.2s-.18,0-.17-.05a2.13,2.13,0,0,1-.81,1l-.06.05-.09,0c-.1.17.06.41-.21.47V9.46a2.74,2.74,0,0,0-.3.26,1.7,1.7,0,0,1-.19.18.51.51,0,0,1-.13-.34c-.07.1-.1,0-.14,0s-.2-.22-.34-.11c-.13-.37,0-.34-.3-.78-.09-.11-.3,0-.45-.08l.13-.13-.3,0,.06-.19a.21.21,0,0,1-.13,0s0,0,0,0A.52.52,0,0,1,11.23,8h0V8a.86.86,0,0,1-.51-.15.32.32,0,0,1,0-.5h0s.09-.09-.09-.14c0,.06-.09.06-.12.08a1,1,0,0,0-.46-.53l.12-.06c-.26-.29-.61-.54-.94-.83A1.8,1.8,0,0,0,9.54,6.9a.61.61,0,0,1,0,.55h0l0,.07a.23.23,0,0,1,0,.18l0,.08,0,0v0a1.35,1.35,0,0,1-.06.67c-.08.26-.07.26-.35.35l-.1,0v0h0l0,0v0c.08.15.17.3.24.45a.48.48,0,0,1,0,.41.2.2,0,0,1-.25.1.22.22,0,0,1-.18-.19A.57.57,0,0,1,9,9.28.48.48,0,0,0,9.1,8.9l0-.06h0a.55.55,0,0,0,.09-.37c0-.23,0-.46,0-.69,0-.08.08-.15.12-.22l0,0h0A7.74,7.74,0,0,1,9,5.95h0V5.89h-.1c-.08-.1,0-.17.07-.2V5.62l-.08,0a.11.11,0,0,1,.07,0v-.1c-.07-.11-.1-.32-.28-.28l0,0c-.35-.34-.55-.44-.84-.71-.13.11-.21,0-.39,0a4.06,4.06,0,0,0-.57-.79c-.24-.11-.15,0-.3,0,.1-.12-.16-.35,0-.3a4.74,4.74,0,0,0-.87-.63c0,.08,0,.15,0,.16s-.11-.2,0-.24h0A1.52,1.52,0,0,1,5,1.89a2.29,2.29,0,0,0-.13-.23c-.09-.11-.18-.22-.27-.32A1.45,1.45,0,0,0,4.08.93h0L3.69.69,3.52.93c-.27.22.15-.3-.07-.23a3.77,3.77,0,0,1-.8.91l-.28.24a.82.82,0,0,0-.18.25c-.28,0-.49.17-.7.41a4.58,4.58,0,0,1-.31.35l-.08.07L1,3.07a2.24,2.24,0,0,1-.32.2l.13,0c-.05.2-.24.15-.39.26.11,0,.27-.13.23,0C.42,3.75.22,4,0,4.17c.26.25.5.5.75.77l.37.41.2.26c.26.34.52.69.8,1s.55-.23.7.27l-.24,0a2.55,2.55,0,0,1,.5.35c0-.15.18-.25.47-.37a.18.18,0,0,1,.14,0,.17.17,0,0,1,.06.1.28.28,0,0,1,0,.13c0,.09-.05.18-.08.27a1.56,1.56,0,0,0,0,.36,3.46,3.46,0,0,0,.73.59c-.06,0-.11,0-.16,0,0,.21.41.41.5.33.07.09-.06.09,0,.18s.41.15.37.3-.07,0-.09,0c.12,0,.33.34.38.16.14.25.43.32.52.54.24,0,.28.39.5.24-.21.17.19.49.41.52-.1,0,0,.16-.08.2.15.14.31.23.39.11,0,.48.72.34.57.77.37.22.69.43,1,.65l0,0a.71.71,0,0,1,.05-.81.15.15,0,0,1,.1-.06.16.16,0,0,1,.12.06.62.62,0,0,1,0,.68.67.67,0,0,0-.12.27l.28.2c-.09.08-.2,0-.3-.08a.1.1,0,0,1-.07,0,2.15,2.15,0,0,1,.87.57c.07.12-.14,0-.2,0,.44.28.69.7,1.11.91,0,0-.07,0-.12,0s.12.17.2.08l-.09,0c0-.22.52,0,.6-.07-.36.14.26.37-.23.51a.17.17,0,0,0,.2,0c0,.08,0,.13-.1.13.28.18.29,0,.49.21,0,0-.1,0-.17,0a.62.62,0,0,1,.51.25s0,.07-.1,0a2.85,2.85,0,0,0,.54.32,1.79,1.79,0,0,1,.61.52c-.2.17.14.25.15.57l.13.08.16-.21-.12,0c.24-.23.38-.59.59-.69l-.13.25.4-.45-.28.15c.14-.3-.17-.23.11-.41,0,.06.16-.16.34-.14h0a.39.39,0,0,1,.21-.33c.08,0,.15.19.21.21-.06-.2.33-.39.28-.62a.22.22,0,0,0,.11.15l0-.17c.11,0,.13,0,.19,0,.24-.19-.27-.13.07-.29,0,0,0,0,0,.09.3-.21.43-.55.72-.73.23.09-.17.24,0,.29a7.85,7.85,0,0,1,.88-1.16l-.08,0c-.18-.26.36-.13.42-.4,0,.06.07.17.06.14a3.43,3.43,0,0,0,.68-.9l0,.1a4.47,4.47,0,0,0,.55-.43c0-.1.08-.17-.06-.2.78-.11.67-1,1.34-1.11,0,0-.06.16,0,.12L20,9.69c-.13-.07-.1,0-.25,0a.4.4,0,0,1,.12-.31c-.09.21.16.15.28.14,0,0-.05-.07-.09-.1.35,0-.17-.22.19-.34l0,.06c.06-.11.08-.26.19-.34.15.07,0,.14,0,.24.13-.14.05-.47.29-.48,0,.09-.11.17-.13.25A.43.43,0,0,0,21,8.68h0l.29-.16-.09,0c-.13-.45.29-.39.33-.8,0,.4.07.14.18.28.09,0,.22-.07.23,0,0-.21.26-.1.26-.39,0,0,.12-.11.2,0,.11-.17-.11,0-.15-.1.07-.35.68-.33.8-.82.17-.31.12-.5.25-.77l.06-.05c.1,0,.06.2.06.2a.6.6,0,0,0,.37-.35c0,.06.07.06.15.07s-.08-.21.11-.29a.78.78,0,0,1,.06.26c.08-.15.12-.35.21-.5.11,0,0,.18,0,.27.11-.17.3-.42.23-.57l-.13,0c0-.06.13.07.11.13s-.21.13-.26.1l.06-.11c-.34-.15-.32.39-.51.55l-.08-.2L25,4.37h0l.17-.16,0,0,0,0c.21-.16.46-.28.32-.66Z" transform="translate(0 -0.59)"/></g></g><path id="Fill-45" class="cls-1" d="M11.63,14.22l.05,0h0l-.05,0" transform="translate(0 -0.59)"/></g></g></g></g></svg>