<svg xmlns="http://www.w3.org/2000/svg" xmlns:xlink="http://www.w3.org/1999/xlink" viewBox="0 0 40 40"><defs><style>.cls-1{fill:#fff;}.cls-2{mask:url(#mask);}</style><mask x="0" y="0" width="40" height="40" maskUnits="userSpaceOnUse"><g transform="translate(0 0)"><g><polygon class="cls-1" points="0 0 40 0 40 40 0 40 0 0"/></g></g></mask></defs><title>icon-instagram</title><g><g><g><g><g><path class="cls-1" d="M20,15.83A4.17,4.17,0,1,0,24.17,20,4.17,4.17,0,0,0,20,15.83" transform="translate(0 0)"/><path class="cls-1" d="M26.64,14.79a1.43,1.43,0,1,1,1.43-1.43,1.43,1.43,0,0,1-1.43,1.43M20,26.25A6.25,6.25,0,1,1,26.25,20,6.26,6.26,0,0,1,20,26.25M25.73,9.58H14.27a4.69,4.69,0,0,0-4.69,4.69V25.73a4.69,4.69,0,0,0,4.69,4.69H25.73a4.69,4.69,0,0,0,4.69-4.69V14.27a4.69,4.69,0,0,0-4.69-4.69" transform="translate(0 0)"/><g><g class="cls-2"><path class="cls-1" d="M32.5,25.73a6.78,6.78,0,0,1-6.77,6.77H14.27A6.78,6.78,0,0,1,7.5,25.73V14.27A6.78,6.78,0,0,1,14.27,7.5H25.73a6.78,6.78,0,0,1,6.77,6.77ZM20,0A20,20,0,1,0,40,20,20,20,0,0,0,20,0Z" transform="translate(0 0)"/></g></g></g></g></g></g></g></svg>