<svg xmlns="http://www.w3.org/2000/svg" xmlns:xlink="http://www.w3.org/1999/xlink" viewBox="0 0 40 40"><defs><style>.cls-1{fill:#fff;}.cls-2{mask:url(#mask);}</style><mask x="0" y="0" width="40" height="40" maskUnits="userSpaceOnUse"><g transform="translate(0 0)"><g><polygon class="cls-1" points="0 0 40 0 40 40 0 40 0 0"/></g></g></mask></defs><g><g><g><g><g><g class="cls-2"><path class="cls-1" d="M20,40A20,20,0,1,1,40,20,20,20,0,0,1,20,40Zm-2.82-9.12h4.5V20h3l.4-3.75h-3.4V14.37c0-1,.09-1.5,1.5-1.5H25V9.12H22c-3.6,0-4.87,1.82-4.87,4.88v2.25H14.93V20h2.25Z" transform="translate(0 0)"/></g></g></g></g></g></g></svg>