<svg xmlns="http://www.w3.org/2000/svg" xmlns:xlink="http://www.w3.org/1999/xlink" viewBox="0 0 40 40"><defs><style>.cls-1{fill:#fff;}.cls-2{mask:url(#mask);}</style><mask x="0" y="0" width="40" height="40" maskUnits="userSpaceOnUse"><g transform="translate(0 0)"><g><polygon class="cls-1" points="0 0 40 0 40 40 0 40 0 0"/></g></g></mask></defs><title>icon-twitter</title><g><g><g><g><g><g class="cls-2"><path class="cls-1" d="M20,40A20,20,0,1,1,40,20,20,20,0,0,1,20,40m2.78-27.81a4,4,0,0,0-2.72,4.07l0,.69-.7-.08a11.35,11.35,0,0,1-6.65-3.28l-.92-.92-.24.68a4.08,4.08,0,0,0,.87,4.18c.56.59.43.68-.53.32a1.66,1.66,0,0,0-.66-.16,5.07,5.07,0,0,0,.5,1.89,4.52,4.52,0,0,0,1.91,1.81l.68.32h-.81c-.78,0-.81,0-.73.31a4.23,4.23,0,0,0,2.61,2.32l.87.3-.75.45a7.83,7.83,0,0,1-3.74,1,4.1,4.1,0,0,0-1.15.11,10.67,10.67,0,0,0,2.7,1.24,11.79,11.79,0,0,0,9.16-1A12.28,12.28,0,0,0,27.18,21a14.56,14.56,0,0,0,.95-4.24c0-.65,0-.73.82-1.51a9.21,9.21,0,0,0,1-1.09c.14-.27.13-.27-.59,0-1.19.42-1.36.37-.77-.27a4.12,4.12,0,0,0,.95-1.51s-.21,0-.45.16a7.72,7.72,0,0,1-1.23.48l-.75.24-.68-.47a5.68,5.68,0,0,0-1.19-.62,4.77,4.77,0,0,0-2.45.06" transform="translate(0 0)"/></g></g></g></g></g></g></svg>