<svg xmlns="http://www.w3.org/2000/svg" width="278" height="54" viewBox="0 0 278 54">
  <path d="M34.167-.048l-.139.966c-.489,3.424-.7,4.812-1.2,6.939-.159.677-.326,1.372-.5,2.079l-2.5-2.568-4.587,6.841-2.17-6.1L20.289-.048H-.25l.237,1.323C.714,5.341,1.146,7.067,1.805,9.7A123.16,123.16,0,0,0,9.2,29.283a177.2,177.2,0,0,0,8.447,15.742c1.611,2.78,2.758,4.5,5.427,8.468l.334.5h9.61l.333-.505a85.157,85.157,0,0,0,5.07-8.4,147.349,147.349,0,0,0,7.6-16.487c3.377-7.9,5.43-14.022,6.459-19.243A71.156,71.156,0,0,0,53.716,1.2l.137-1.247ZM3.982,9.136C3.416,6.87,3.019,5.282,2.443,2.2H18.678l2.26,6.649,2.673,7.514c.024.059.04.115.06.171l-1.5,2.239-3.9-5.231-8.107,12.43A115.754,115.754,0,0,1,3.982,9.136ZM50.272,8.9A84.528,84.528,0,0,1,45.647,23.59L34.159,11.816c.327-1.207.6-2.348.858-3.446.467-2,.693-3.353,1.1-6.168H51.339A63.314,63.314,0,0,1,50.272,8.9Z" transform="translate(0.25 0.048)" fill="#fff"/>
  <path d="M69.458,26.288v5.984l-4.575,7.6H57.525l4.541-7.6h-.527c-3.732,0-6.091-.247-7.745,2.182a4.858,4.858,0,0,0-.142,4.752c1.057,2.217,4.191,2.289,6.337,2.289h9.469v5.6h-10.6c-3.555,0-8.694-.492-11.51-5.209a10.815,10.815,0,0,1,0-10.595c2.886-4.928,6.794-5,10.947-5H69.458" transform="translate(0.25 0.048)" fill="#fff"/>
  <rect x="71.999" y="20.246" width="7.251" height="26.892" fill="#fff"/>
  <path d="M91.355,25.725c3.168-.389,8.484-.211,11.969,3.977A11.023,11.023,0,0,1,105.4,39.946a10.829,10.829,0,0,1-7.6,7.32c-3.2.951-9.258.916-13.024-2.323a11.33,11.33,0,0,1-3.625-9.5A11.5,11.5,0,0,1,87.2,26.885a16.912,16.912,0,0,1,4.153-1.16m-2.146,8.059a5.441,5.441,0,0,0-.67,4.717,5.315,5.315,0,0,0,3.45,3.38,5.156,5.156,0,0,0,4.54-.88,5.351,5.351,0,0,0,2.043-4.506,4.991,4.991,0,0,0-2.465-4.188,5.25,5.25,0,0,0-6.9,1.477Z" transform="translate(0.25 0.048)" fill="#fff"/>
  <path d="M106.635,47.231c4.189,0,6.935.248,8.308-2.534,1.2-2.289-.283-4.647-3.38-7.427l-1.232-1.127c-4.048-3.625-4.753-6.617-3.731-9.855h6.654c-.389,2.041-.529,3.484,2.041,5.421l1.231.95c5.913,4.47,6.689,9.327,5.245,13.447-2.113,6.089-7.919,6.828-13.129,6.828h-3.45v-5.7h1.443" transform="translate(0.25 0.048)" fill="#fff"/>
  <path d="M133.252,25.725c3.167-.389,8.483-.211,11.968,3.977A11.026,11.026,0,0,1,147.3,39.946a10.829,10.829,0,0,1-7.6,7.32c-3.2.951-9.257.916-13.024-2.323a11.328,11.328,0,0,1-3.626-9.5,11.506,11.506,0,0,1,6.055-8.555,16.907,16.907,0,0,1,4.154-1.16M131.1,33.784a5.437,5.437,0,0,0-.668,4.717,5.305,5.305,0,0,0,3.449,3.38,5.159,5.159,0,0,0,4.541-.88,5.351,5.351,0,0,0,2.041-4.506A4.993,4.993,0,0,0,138,32.307a5.253,5.253,0,0,0-6.9,1.477Z" transform="translate(0.25 0.048)" fill="#fff"/>
  <rect x="149.907" y="20.246" width="7.252" height="26.892" fill="#fff"/>
  <path d="M181.55,47.09H170.392c-2.184,0-5.6.035-8.237-2.5-2.535-2.535-2.429-5.246-2.429-8.2v-10.1h7.32v9.047c0,2.992.072,4.187,1.3,5.209.775.632,2.886.632,5.949.632V26.288h7.252v20.8" transform="translate(0.25 0.048)" fill="#fff"/>
  <path d="M184.649,20.479H191.9v5.879h7.075v5.879H191.9v3.625c0,2.781-.07,4.084.739,4.752,1.056.951,2.957.881,4.576.881h1.654v5.6h-4.3c-2.779,0-5.771-.07-7.847-2.041-2.079-2.006-2.079-4.752-2.079-7.041V20.479" transform="translate(0.25 0.048)" fill="#fff"/>
  <path d="M201.513,27.7h7.25V47.09h-7.25Zm.035-7.5h7.18v5.879h-7.18Z" transform="translate(0.25 0.048)" fill="#fff"/>
  <path d="M221.05,25.725c3.168-.389,8.482-.211,11.967,3.977A11.032,11.032,0,0,1,235.1,39.946a10.836,10.836,0,0,1-7.6,7.32c-3.2.951-9.258.916-13.025-2.323a11.33,11.33,0,0,1-3.625-9.5,11.507,11.507,0,0,1,6.054-8.555,16.913,16.913,0,0,1,4.155-1.16M218.9,33.784a5.441,5.441,0,0,0-.67,4.717,5.307,5.307,0,0,0,3.45,3.38,5.159,5.159,0,0,0,4.541-.88,5.354,5.354,0,0,0,2.041-4.506,5,5,0,0,0-2.463-4.188,5.251,5.251,0,0,0-6.9,1.477Z" transform="translate(0.25 0.048)" fill="#fff"/>
  <path d="M237.524,26.288h11.159c2.148,0,5.632-.036,8.2,2.5s2.465,5.386,2.465,8.2v10.1h-7.321V38.081c0-2.571-.07-4.26-1.3-5.246-.776-.633-3.168-.633-5.95-.633V47.09h-7.252v-20.8" transform="translate(0.25 0.048)" fill="#fff"/>
  <path d="M262.272,47.231c4.19,0,6.936.248,8.309-2.534,1.195-2.289-.283-4.647-3.379-7.427l-1.232-1.127c-4.049-3.625-4.752-6.617-3.733-9.855h6.655c-.389,2.041-.53,3.484,2.041,5.421l1.232.95c5.912,4.47,6.688,9.327,5.244,13.447-2.111,6.089-7.92,6.828-13.129,6.828h-3.449v-5.7h1.441" transform="translate(0.25 0.048)" fill="#fff"/>
</svg>
